<svg xmlns="http://www.w3.org/2000/svg" viewBox="0 0 48 48" width="48px" height="48px" fill-rule="evenodd" clip-rule="evenodd"><path fill="#EEE" fill-rule="evenodd" d="M2,11.449c14.667-5.02,29.333,5.02,44,0c0,8.367,0,16.734,0,25.102 c-14.667,5.02-29.333-5.02-44,0C2,28.184,2,19.816,2,11.449z" clip-rule="evenodd"/><path fill="#006233" d="M2,11.449c7.167-2.453,14.333-1.31,21.5-0.086c0,8.367,0,16.734,0,25.101 C16.333,35.241,9.167,34.098,2,36.551C2,28.184,2,19.816,2,11.449z"/><path fill="#D21034" d="M29.133,21.693c-1.795-3.237-5.77-4.988-8.879-3.75c-3.109,1.26-4.174,5.016-2.379,8.228 s5.77,4.941,8.879,3.728c0.988-0.389,1.809-1.058,2.379-1.93c-1.795,1.919-5.067,1.69-7.309-0.418 c-2.242-2.099-2.604-5.305-0.809-7.189c1.795-1.879,5.067-1.637,7.309,0.432C28.623,21.069,28.894,21.37,29.133,21.693 M29.35,24.861c-1.95-0.888-3.9-1.841-5.85-2.788c1.213,1.811,2.427,3.625,3.64,5.423c0-1.98,0-3.96,0-5.941 c-1.213,1.409-2.427,2.803-3.64,4.199C25.45,25.475,27.4,25.201,29.35,24.861z"/><linearGradient id="I3FOlYNARzlH3tR0hdNPKa" x1="2" x2="46" y1="26" y2="26" gradientTransform="matrix(1 0 0 -1 0 50)" gradientUnits="userSpaceOnUse"><stop offset=".004" stop-opacity=".4"/><stop offset=".188" stop-color="#000b24" stop-opacity="0"/><stop offset=".371" stop-color="#000b24" stop-opacity=".018"/><stop offset=".408" stop-color="#00091e" stop-opacity=".086"/><stop offset=".456" stop-color="#00040e" stop-opacity=".176"/><stop offset=".474" stop-color="#000206" stop-opacity=".209"/><stop offset=".541" stop-opacity=".3"/><stop offset=".656" stop-color="#00081a" stop-opacity=".088"/><stop offset=".694" stop-color="#000b24" stop-opacity=".018"/><stop offset=".842" stop-color="#000b24" stop-opacity=".018"/><stop offset=".91" stop-color="#000717" stop-opacity=".183"/><stop offset="1" stop-opacity=".4"/></linearGradient><path fill="url(#I3FOlYNARzlH3tR0hdNPKa)" d="M2,11.449c14.667-5.02,29.333,5.02,44,0c0,8.367,0,16.734,0,25.102c-14.667,5.02-29.333-5.02-44,0 C2,28.184,2,19.816,2,11.449z"/><linearGradient id="I3FOlYNARzlH3tR0hdNPKb" x1="2" x2="46" y1="26" y2="26" gradientTransform="matrix(1 0 0 -1 0 50)" gradientUnits="userSpaceOnUse"><stop offset="0" stop-color="#fff" stop-opacity="0"/><stop offset=".232" stop-color="#fff" stop-opacity=".7"/><stop offset=".408" stop-color="#fff" stop-opacity="0"/><stop offset=".587" stop-color="#fff" stop-opacity="0"/><stop offset=".794" stop-color="#fff" stop-opacity=".4"/><stop offset=".983" stop-color="#fff" stop-opacity=".026"/><stop offset=".996" stop-color="#fff" stop-opacity="0"/></linearGradient><path fill="url(#I3FOlYNARzlH3tR0hdNPKb)" d="M2,11.449c14.667-5.02,29.333,5.02,44,0 c0,8.367,0,16.734,0,25.102c-14.667,5.02-29.333-5.02-44,0C2,28.184,2,19.816,2,11.449z" opacity=".3"/></svg>